<svg xmlns="http://www.w3.org/2000/svg" viewBox="0 0 800 500" shape-rendering="crispEdges">
  <rect width="800" height="500" fill="#2c8c2f"/>
  <rect x="0" y="0" width="80" height="500" fill="#309834"/>
  <rect x="80" y="0" width="80" height="500" fill="#2a842d"/>
  <rect x="160" y="0" width="80" height="500" fill="#319936"/>
  <rect x="240" y="0" width="80" height="500" fill="#2b872f"/>
  <rect x="320" y="0" width="80" height="500" fill="#319a36"/>
  <rect x="400" y="0" width="80" height="500" fill="#2b862f"/>
  <rect x="480" y="0" width="80" height="500" fill="#329c37"/>
  <rect x="560" y="0" width="80" height="500" fill="#2b8830"/>
  <rect x="640" y="0" width="80" height="500" fill="#319937"/>
  <rect x="720" y="0" width="80" height="500" fill="#2b842f"/>

  <g opacity="0.32" fill="#1f6723">
    <rect x="38" y="60" width="4" height="4"/>
    <rect x="118" y="150" width="4" height="4"/>
    <rect x="188" y="96" width="4" height="4"/>
    <rect x="280" y="194" width="4" height="4"/>
    <rect x="344" y="88" width="4" height="4"/>
    <rect x="418" y="230" width="4" height="4"/>
    <rect x="510" y="120" width="4" height="4"/>
    <rect x="586" y="280" width="4" height="4"/>
    <rect x="668" y="174" width="4" height="4"/>
    <rect x="742" y="320" width="4" height="4"/>
    <rect x="68" y="280" width="4" height="4"/>
    <rect x="138" y="348" width="4" height="4"/>
    <rect x="232" y="412" width="4" height="4"/>
    <rect x="306" y="342" width="4" height="4"/>
    <rect x="392" y="438" width="4" height="4"/>
    <rect x="456" y="334" width="4" height="4"/>
    <rect x="534" y="420" width="4" height="4"/>
    <rect x="622" y="378" width="4" height="4"/>
    <rect x="700" y="450" width="4" height="4"/>
  </g>

  <g opacity="0.26" fill="#5fc05f">
    <rect x="52" y="104" width="3" height="3"/>
    <rect x="152" y="56" width="3" height="3"/>
    <rect x="216" y="168" width="3" height="3"/>
    <rect x="286" y="78" width="3" height="3"/>
    <rect x="364" y="154" width="3" height="3"/>
    <rect x="438" y="56" width="3" height="3"/>
    <rect x="522" y="204" width="3" height="3"/>
    <rect x="596" y="96" width="3" height="3"/>
    <rect x="684" y="226" width="3" height="3"/>
    <rect x="758" y="132" width="3" height="3"/>
    <rect x="102" y="246" width="3" height="3"/>
    <rect x="186" y="304" width="3" height="3"/>
    <rect x="274" y="262" width="3" height="3"/>
    <rect x="352" y="298" width="3" height="3"/>
    <rect x="430" y="254" width="3" height="3"/>
    <rect x="512" y="322" width="3" height="3"/>
    <rect x="604" y="266" width="3" height="3"/>
    <rect x="686" y="334" width="3" height="3"/>
    <rect x="750" y="286" width="3" height="3"/>
  </g>
</svg>
