<svg xmlns="http://www.w3.org/2000/svg" viewBox="0 0 64 40" shape-rendering="crispEdges">
  <rect x="6" y="4" width="8" height="8" fill="#0f0f10"/><rect x="6" y="28" width="8" height="8" fill="#0f0f10"/>
  <rect x="50" y="4" width="8" height="8" fill="#0f0f10"/><rect x="50" y="28" width="8" height="8" fill="#0f0f10"/>
  <rect x="8" y="6" width="4" height="4" fill="#6c7076"/><rect x="8" y="30" width="4" height="4" fill="#6c7076"/>
  <rect x="52" y="6" width="4" height="4" fill="#6c7076"/><rect x="52" y="30" width="4" height="4" fill="#6c7076"/>
  <polygon points="3,10 7,6 18,5 48,5 57,8 61,13 61,27 57,32 48,35 18,35 7,34 3,30" fill="#3f4349"/>
  <polygon points="6,11 18,7 48,7 55,10 57,13 57,27 55,30 48,33 18,33 9,32 6,29" fill="#4d5259"/>
  <polygon points="16,9 48,9 53,12 53,28 48,31 16,31 12,28 12,12" fill="#353b43"/>
  <polygon points="20,10 46,10 50,13 50,27 46,30 20,30 16,27 16,13" fill="#151a21"/>
  <rect x="17" y="12" width="8" height="16" fill="#9fc2d9"/><rect x="40" y="12" width="9" height="16" fill="#b9d7e9"/>
  <rect x="26" y="10" width="13" height="4" fill="#90b0c8"/><rect x="26" y="26" width="13" height="4" fill="#90b0c8"/>
  <rect x="60" y="14" width="2" height="4" fill="#fff4a3"/><rect x="60" y="22" width="2" height="4" fill="#fff4a3"/>
  <rect x="2" y="14" width="2" height="4" fill="#d23b37"/><rect x="2" y="22" width="2" height="4" fill="#d23b37"/>
  <rect x="3" y="10" width="58" height="25" fill="none" stroke="#1f2126" stroke-width="1.5"/>
</svg>
