<svg xmlns="http://www.w3.org/2000/svg" viewBox="0 0 64 40" shape-rendering="crispEdges">
  <rect x="7" y="5" width="7" height="7" fill="#0f0f10"/><rect x="7" y="28" width="7" height="7" fill="#0f0f10"/>
  <rect x="50" y="5" width="7" height="7" fill="#0f0f10"/><rect x="50" y="28" width="7" height="7" fill="#0f0f10"/>
  <rect x="9" y="7" width="3" height="3" fill="#73757a"/><rect x="9" y="30" width="3" height="3" fill="#73757a"/>
  <rect x="52" y="7" width="3" height="3" fill="#73757a"/><rect x="52" y="30" width="3" height="3" fill="#73757a"/>
  <polygon points="4,11 8,8 18,6 48,6 57,9 60,13 60,27 57,31 48,34 18,34 8,32 4,29" fill="#d8dce2"/>
  <polygon points="7,12 18,8 48,8 55,11 56,13 56,27 55,29 48,32 18,32 10,31 7,28" fill="#eceff4"/>
  <polygon points="17,10 49,10 53,13 53,27 49,30 17,30 13,27 13,13" fill="#c4ccd8"/>
  <polygon points="20,11 46,11 50,14 50,26 46,29 20,29 17,26 17,14" fill="#2b3038"/>
  <rect x="18" y="13" width="8" height="14" fill="#b8ddf1"/><rect x="40" y="13" width="9" height="14" fill="#d3edf9"/>
  <rect x="27" y="11" width="12" height="4" fill="#a5c9e3"/><rect x="27" y="25" width="12" height="4" fill="#a5c9e3"/>
  <rect x="59" y="14" width="2" height="4" fill="#fff4a3"/><rect x="59" y="22" width="2" height="4" fill="#fff4a3"/>
  <rect x="3" y="14" width="2" height="4" fill="#d23b37"/><rect x="3" y="22" width="2" height="4" fill="#d23b37"/>
  <rect x="4" y="11" width="56" height="23" fill="none" stroke="#1f2126" stroke-width="1.5"/>
</svg>
