<svg xmlns="http://www.w3.org/2000/svg" viewBox="0 0 64 40" shape-rendering="crispEdges">
  <rect x="3" y="1" width="12" height="9" fill="#111"/>
  <rect x="3" y="30" width="12" height="9" fill="#111"/>
  <rect x="49" y="1" width="12" height="9" fill="#111"/>
  <rect x="49" y="30" width="12" height="9" fill="#111"/>
  <rect x="5" y="2" width="8" height="7" fill="#333"/>
  <rect x="5" y="31" width="8" height="7" fill="#333"/>
  <rect x="51" y="2" width="8" height="7" fill="#333"/>
  <rect x="51" y="31" width="8" height="7" fill="#333"/>
  <rect x="2" y="5" width="60" height="30" fill="#2c3036"/>
  <rect x="2" y="5" width="13" height="30" fill="#373c43"/>
  <rect x="51" y="5" width="11" height="30" fill="#23272d"/>
  <rect x="15" y="7" width="34" height="26" fill="#0f1319"/>
  <rect x="14" y="9" width="8" height="22" fill="#96b9d2" opacity="0.8"/>
  <rect x="47" y="9" width="9" height="22" fill="#b5d3e6" opacity="0.85"/>
  <rect x="24" y="6" width="10" height="5" fill="#85a7c1" opacity="0.75"/>
  <rect x="36" y="6" width="9" height="5" fill="#85a7c1" opacity="0.75"/>
  <rect x="24" y="29" width="10" height="5" fill="#85a7c1" opacity="0.75"/>
  <rect x="36" y="29" width="9" height="5" fill="#85a7c1" opacity="0.75"/>
  <line x1="48" y1="9" x2="62" y2="13" stroke="#727980" stroke-width="1.5"/>
  <line x1="48" y1="13" x2="62" y2="9" stroke="#666d75" stroke-width="1"/>
  <rect x="15" y="10" width="33" height="2" fill="#ffffff18"/>
  <rect x="15" y="28" width="33" height="2" fill="#ffffff18"/>
  <rect x="58" y="5" width="4" height="2" fill="#C0D8FF"/>
  <rect x="58" y="33" width="4" height="2" fill="#C0D8FF"/>
  <rect x="60" y="7" width="2" height="7" fill="#D0E8FF"/>
  <rect x="60" y="26" width="2" height="7" fill="#D0E8FF"/>
  <rect x="2" y="6" width="5" height="7" fill="#FF3300"/>
  <rect x="2" y="27" width="5" height="7" fill="#FF3300"/>
  <rect x="2" y="5" width="60" height="30" fill="none" stroke="#000" stroke-width="1.5"/>
</svg>
