<svg xmlns="http://www.w3.org/2000/svg" viewBox="0 0 64 40" shape-rendering="crispEdges">
  <rect x="4" y="1" width="11" height="8" fill="#111"/>
  <rect x="4" y="31" width="11" height="8" fill="#111"/>
  <rect x="49" y="1" width="11" height="8" fill="#111"/>
  <rect x="49" y="31" width="11" height="8" fill="#111"/>
  <rect x="6" y="2" width="7" height="6" fill="#3a3a3a"/>
  <rect x="6" y="32" width="7" height="6" fill="#3a3a3a"/>
  <rect x="51" y="2" width="7" height="6" fill="#3a3a3a"/>
  <rect x="51" y="32" width="7" height="6" fill="#3a3a3a"/>
  <rect x="2" y="6" width="60" height="28" fill="#d9d328"/>
  <rect x="2" y="6" width="13" height="28" fill="#e6df3a"/>
  <rect x="51" y="6" width="11" height="28" fill="#c8c11b"/>
  <rect x="15" y="8" width="34" height="24" fill="#7a7420"/>
  <rect x="16" y="9" width="32" height="6" fill="#9e9731"/>
  <rect x="16" y="25" width="32" height="5" fill="#9e9731"/>
  <rect x="14" y="10" width="8" height="20" fill="#9ec9e2" opacity="0.8"/>
  <rect x="47" y="10" width="9" height="20" fill="#bbdef4" opacity="0.75"/>
  <rect x="24" y="7" width="9" height="5" fill="#A8C000" opacity="0.7"/>
  <rect x="35" y="7" width="9" height="5" fill="#A8C000" opacity="0.7"/>
  <rect x="24" y="28" width="9" height="5" fill="#A8C000" opacity="0.7"/>
  <rect x="35" y="28" width="9" height="5" fill="#A8C000" opacity="0.7"/>
  <rect x="60" y="7" width="2" height="7" fill="#FFFF80"/>
  <rect x="60" y="26" width="2" height="7" fill="#FFFF80"/>
  <rect x="2" y="7" width="4" height="6" fill="#FF3300"/>
  <rect x="2" y="27" width="4" height="6" fill="#FF3300"/>
  <rect x="2" y="6" width="60" height="28" fill="none" stroke="#111" stroke-width="1.5"/>
</svg>
