<svg xmlns="http://www.w3.org/2000/svg" viewBox="0 0 64 40" shape-rendering="crispEdges">
  <rect x="4" y="2" width="10" height="7" fill="#111"/>
  <rect x="4" y="31" width="10" height="7" fill="#111"/>
  <rect x="50" y="2" width="10" height="7" fill="#111"/>
  <rect x="50" y="31" width="10" height="7" fill="#111"/>
  <rect x="6" y="3" width="6" height="5" fill="#444"/>
  <rect x="6" y="32" width="6" height="5" fill="#444"/>
  <rect x="52" y="3" width="6" height="5" fill="#444"/>
  <rect x="52" y="32" width="6" height="5" fill="#444"/>
  <rect x="3" y="7" width="58" height="26" fill="#3f9f63"/>
  <rect x="3" y="7" width="12" height="26" fill="#4bb06f"/>
  <rect x="52" y="7" width="9" height="26" fill="#358b56"/>
  <rect x="16" y="9" width="34" height="22" fill="#2b6e45"/>
  <rect x="15" y="10" width="8" height="20" fill="#9dd0e9" opacity="0.8"/>
  <rect x="47" y="10" width="9" height="20" fill="#bde4f5" opacity="0.9"/>
  <rect x="22" y="8" width="7" height="5" fill="#6ebf8f" opacity="0.8"/>
  <rect x="31" y="8" width="7" height="5" fill="#6ebf8f" opacity="0.8"/>
  <rect x="40" y="8" width="7" height="5" fill="#6ebf8f" opacity="0.8"/>
  <rect x="22" y="27" width="7" height="5" fill="#6ebf8f" opacity="0.8"/>
  <rect x="31" y="27" width="7" height="5" fill="#6ebf8f" opacity="0.8"/>
  <rect x="40" y="27" width="7" height="5" fill="#6ebf8f" opacity="0.8"/>
  <rect x="29" y="7" width="2" height="26" fill="#A0A090" opacity="0.45"/>
  <rect x="38" y="7" width="2" height="26" fill="#A0A090" opacity="0.45"/>
  <rect x="60" y="8" width="2" height="6" fill="#FFFFA0"/>
  <rect x="60" y="26" width="2" height="6" fill="#FFFFA0"/>
  <rect x="2" y="8" width="3" height="6" fill="#FF3300"/>
  <rect x="2" y="26" width="3" height="6" fill="#FF3300"/>
  <rect x="3" y="7" width="58" height="26" fill="none" stroke="#222" stroke-width="1.5"/>
</svg>
